<mxfile host="app.diagrams.net" modified="2020-09-15T06:24:15.580Z" agent="5.0 (Windows)" etag="5u6U1nJ1-cklNKxfJE3y" version="13.6.10" type="github">
  <diagram id="aj0dhYbqeNluErTvLIBp" name="Page-1">
    <mxGraphModel dx="910" dy="487" grid="1" gridSize="10" guides="1" tooltips="1" connect="1" arrows="1" fold="1" page="1" pageScale="1" pageWidth="1169" pageHeight="827" math="0" shadow="0">
      <root>
        <mxCell id="0" />
        <mxCell id="1" parent="0" />
        <mxCell id="FM7BHI-WfwuV63jyE6Yz-1" value="Container" style="swimlane;" vertex="1" parent="1">
          <mxGeometry x="10" y="20" width="1130" height="930" as="geometry" />
        </mxCell>
        <mxCell id="FM7BHI-WfwuV63jyE6Yz-2" value="Start" style="rounded=1;whiteSpace=wrap;html=1;fontSize=10;" vertex="1" parent="FM7BHI-WfwuV63jyE6Yz-1">
          <mxGeometry x="220" y="60" width="120" height="60" as="geometry" />
        </mxCell>
        <mxCell id="FM7BHI-WfwuV63jyE6Yz-5" value="HOD Develops a concept" style="rounded=0;whiteSpace=wrap;html=1;fontSize=10;" vertex="1" parent="FM7BHI-WfwuV63jyE6Yz-1">
          <mxGeometry x="220" y="190" width="120" height="60" as="geometry" />
        </mxCell>
        <mxCell id="FM7BHI-WfwuV63jyE6Yz-4" value="" style="edgeStyle=orthogonalEdgeStyle;rounded=0;orthogonalLoop=1;jettySize=auto;html=1;" edge="1" parent="1" source="FM7BHI-WfwuV63jyE6Yz-2">
          <mxGeometry relative="1" as="geometry">
            <mxPoint x="290" y="210" as="targetPoint" />
          </mxGeometry>
        </mxCell>
        <mxCell id="FM7BHI-WfwuV63jyE6Yz-9" value="" style="edgeStyle=orthogonalEdgeStyle;rounded=0;orthogonalLoop=1;jettySize=auto;html=1;fontSize=10;" edge="1" parent="1" source="FM7BHI-WfwuV63jyE6Yz-6" target="FM7BHI-WfwuV63jyE6Yz-8">
          <mxGeometry relative="1" as="geometry" />
        </mxCell>
        <mxCell id="FM7BHI-WfwuV63jyE6Yz-6" value="Approved by CEO?" style="rhombus;whiteSpace=wrap;html=1;rounded=0;fontSize=10;" vertex="1" parent="1">
          <mxGeometry x="250" y="340" width="80" height="80" as="geometry" />
        </mxCell>
        <mxCell id="FM7BHI-WfwuV63jyE6Yz-7" value="" style="edgeStyle=orthogonalEdgeStyle;rounded=0;orthogonalLoop=1;jettySize=auto;html=1;" edge="1" parent="1" source="FM7BHI-WfwuV63jyE6Yz-5" target="FM7BHI-WfwuV63jyE6Yz-6">
          <mxGeometry relative="1" as="geometry" />
        </mxCell>
        <mxCell id="FM7BHI-WfwuV63jyE6Yz-11" value="" style="edgeStyle=orthogonalEdgeStyle;rounded=0;orthogonalLoop=1;jettySize=auto;html=1;fontSize=10;" edge="1" parent="1" source="FM7BHI-WfwuV63jyE6Yz-8" target="FM7BHI-WfwuV63jyE6Yz-10">
          <mxGeometry relative="1" as="geometry" />
        </mxCell>
        <mxCell id="FM7BHI-WfwuV63jyE6Yz-8" value="Event coordinator is appointed, Preparatory committee is constituted and committee&#39;s TOR&#39;s developed" style="whiteSpace=wrap;html=1;rounded=0;fontSize=10;" vertex="1" parent="1">
          <mxGeometry x="230" y="510" width="120" height="60" as="geometry" />
        </mxCell>
        <mxCell id="FM7BHI-WfwuV63jyE6Yz-10" value="Event coordinator prepares for initial countdown of activities" style="whiteSpace=wrap;html=1;rounded=0;fontSize=10;" vertex="1" parent="1">
          <mxGeometry x="230" y="650" width="120" height="60" as="geometry" />
        </mxCell>
      </root>
    </mxGraphModel>
  </diagram>
</mxfile>
